<?xml version="1.0" encoding="UTF-8"?>
<svg width="180px" height="180px" viewBox="0 0 180 180" version="1.1" xmlns="http://www.w3.org/2000/svg" xmlns:xlink="http://www.w3.org/1999/xlink">
    <title>编组</title>
    <g id="页面-1" stroke="none" stroke-width="1" fill="none" fill-rule="evenodd">
        <g id="编组" fill="#E40030" fill-rule="nonzero">
            <path d="M90,2.6229019e-15 C139.707,2.6229019e-15 180,40.2930001 180,90 C180,139.707 139.707,180 90,180 C40.2930003,180 0,139.707 0,90 C0,40.2929999 40.2930001,2.6229019e-15 90,2.6229019e-15 L90,2.6229019e-15 Z M141.282,56.673 C137.767501,53.1595626 132.070499,53.1595626 128.556,56.673 L81,104.229 L55.863,79.092 L55.017,78.345 C51.2629724,75.4074504 45.8696075,75.9063968 42.718191,79.482777 C39.5667744,83.0591572 39.7504337,88.4724374 43.1369999,91.827 L74.637,123.327 L75.483,124.074 C79.0657674,126.85322 84.1565831,126.533116 87.3629999,123.327 L141.282,69.3989999 L142.029,68.5529999 C144.80822,64.9702325 144.488116,59.8794168 141.282,56.673 L141.282,56.673 Z" id="形状"></path>
        </g>
    </g>
</svg>